<?xml version="1.0" encoding="UTF-8"?>
<svg width="700px" height="452px" viewBox="0 0 700 452" version="1.1" xmlns="http://www.w3.org/2000/svg" xmlns:xlink="http://www.w3.org/1999/xlink">
    <!-- Generator: Sketch 59.1 (86144) - https://sketch.com -->
    <title>offcanvas-desktop-lg</title>
    <desc>Created with Sketch.</desc>
    <g id="Page-1" stroke="none" stroke-width="1" fill="none" fill-rule="evenodd">
        <g id="offcanvas-desktop-lg">
            <path d="M0,34 L700,34 L700,447 C700,449.761424 697.761424,452 695,452 L5,452 C2.23857625,452 3.38176876e-16,449.761424 0,447 L0,34 L0,34 Z" id="Rectangle-4" fill="#E3EBFF"></path>
            <rect id="Rectangle" fill="#EEF3FF" x="64" y="107" width="572" height="345"></rect>
            <rect id="Rectangle-3" fill="#9EC7FF" x="64" y="107" width="572" height="52"></rect>
            <rect id="Rectangle" fill="#2D7BE8" x="546" y="34" width="154" height="418"></rect>
            <path d="M649,253 C650.104569,253 651,253.895431 651,255 L651,260 C651,261.104569 650.104569,262 649,262 L566,262 C564.895431,262 564,261.104569 564,260 L564,255 C564,253.895431 564.895431,253 566,253 L649,253 Z M679,227 C680.104569,227 681,227.895431 681,229 L681,234 C681,235.104569 680.104569,236 679,236 L566,236 C564.895431,236 564,235.104569 564,234 L564,229 C564,227.895431 564.895431,227 566,227 L679,227 Z M679,201 C680.104569,201 681,201.895431 681,203 L681,208 C681,209.104569 680.104569,210 679,210 L566,210 C564.895431,210 564,209.104569 564,208 L564,203 C564,201.895431 564.895431,201 566,201 L679,201 Z M679,175 C680.104569,175 681,175.895431 681,177 L681,182 C681,183.104569 680.104569,184 679,184 L566,184 C564.895431,184 564,183.104569 564,182 L564,177 C564,175.895431 564.895431,175 566,175 L679,175 Z M679,151 C680.104569,151 681,151.895431 681,153 L681,158 C681,159.104569 680.104569,160 679,160 L566,160 C564.895431,160 564,159.104569 564,158 L564,153 C564,151.895431 564.895431,151 566,151 L679,151 Z M679,125 C680.104569,125 681,125.895431 681,127 L681,132 C681,133.104569 680.104569,134 679,134 L566,134 C564.895431,134 564,133.104569 564,132 L564,127 C564,125.895431 564.895431,125 566,125 L679,125 Z M679,99 C680.104569,99 681,99.8954305 681,101 L681,106 C681,107.104569 680.104569,108 679,108 L566,108 C564.895431,108 564,107.104569 564,106 L564,101 C564,99.8954305 564.895431,99 566,99 L679,99 Z" id="Combined-Shape" fill="#D5E7FF" opacity="0.553455171"></path>
            <path d="M580.475875,49.5241247 C581.174708,50.2229577 581.174708,51.3559897 580.475875,52.0548227 L575.027,57.502 L580.396167,62.8689064 C581.094087,63.486417 581.195724,64.5293218 580.655575,65.267539 L580.553583,65.3945011 C579.901547,66.1355139 578.773911,66.2061856 578.034938,65.5523508 L578.034938,65.5523508 L572.503,60.026 L567.054823,65.4758753 C566.35599,66.1747082 565.222958,66.1747082 564.524125,65.4758753 C563.825292,64.7770423 563.825292,63.6440103 564.524125,62.9451773 L569.972,57.497 L564.603833,52.1310936 C563.905913,51.513583 563.804276,50.4706782 564.344425,49.732461 L564.446417,49.6054989 C565.098453,48.8644861 566.226089,48.7938144 566.965062,49.4476492 L566.965062,49.4476492 L572.496,54.973 L577.945177,49.5241247 C578.64401,48.8252918 579.777042,48.8252918 580.475875,49.5241247 Z" id="Combined-Shape" fill="#9EC7FF" fill-rule="nonzero" opacity="0.737234933"></path>
            <g id="Group-17" transform="translate(80.000000, 125.000000)" fill="#E0EDFF" fill-rule="nonzero">
                <path d="M22,14 L22,17 L0,17 L0,14 L22,14 Z M22,7 L22,10 L0,10 L0,7 L22,7 Z M22,0 L22,3 L0,3 L0,0 L22,0 Z" id="Combined-Shape"></path>
            </g>
            <path d="M5,0 L695,0 C697.761424,-5.07265313e-16 700,2.23857625 700,5 L700,34 L700,34 L0,34 L0,5 C-3.38176876e-16,2.23857625 2.23857625,5.07265313e-16 5,0 Z" id="Rectangle" fill="#737373"></path>
            <g id="Group-5" transform="translate(17.000000, 12.000000)" fill="#C7C7C7">
                <path d="M4.98484848,0 C7.73790428,0 9.96969697,2.23857625 9.96969697,5 C9.96969697,7.76142375 7.73790428,10 4.98484848,10 C2.23179269,10 0,7.76142375 0,5 C0,2.23857625 2.23179269,0 4.98484848,0 Z M23.5,0 C26.2530558,0 28.4848485,2.23857625 28.4848485,5 C28.4848485,7.76142375 26.2530558,10 23.5,10 C20.7469442,10 18.5151515,7.76142375 18.5151515,5 C18.5151515,2.23857625 20.7469442,0 23.5,0 Z M42.0151515,0 C44.7682073,0 47,2.23857625 47,5 C47,7.76142375 44.7682073,10 42.0151515,10 C39.2620957,10 37.030303,7.76142375 37.030303,5 C37.030303,2.23857625 39.2620957,0 42.0151515,0 Z" id="Combined-Shape"></path>
            </g>
        </g>
    </g>
</svg>